<svg width="120" height="120" viewBox="0 0 120 120" fill="none" xmlns="http://www.w3.org/2000/svg">
<path d="M31.4182 23.5068L21.6 13.6986L13.9091 21.4247L23.6727 31.2329L31.4182 23.5068ZM16.3636 54.5205H0V65.4794H16.3636V54.5205ZM65.4545 0H54.5455V16.1644H65.4545V0V0ZM106.091 21.4247L98.4 13.6986L88.6364 23.5068L96.3273 31.2329L106.091 21.4247ZM88.5818 96.4931L98.3455 106.356L106.036 98.6301L96.2182 88.8219L88.5818 96.4931ZM103.636 54.5205V65.4794H120V54.5205H103.636ZM60 27.1233C41.9455 27.1233 27.2727 41.863 27.2727 60C27.2727 78.137 41.9455 92.8767 60 92.8767C78.0545 92.8767 92.7273 78.137 92.7273 60C92.7273 41.863 78.0545 27.1233 60 27.1233ZM54.5455 120H65.4545V103.836H54.5455V120ZM13.9091 98.5753L21.6 106.301L31.3636 96.4384L23.6727 88.7123L13.9091 98.5753Z" fill="#FFE600"/>
</svg>
